<?xml version="1.0" encoding="iso-8859-1"?>
<!-- Uploaded to: SVG Repo, www.svgrepo.com, Generator: SVG Repo Mixer Tools -->
<svg fill="#000000" height="800px" width="800px" version="1.1" id="Layer_1" xmlns="http://www.w3.org/2000/svg" xmlns:xlink="http://www.w3.org/1999/xlink" 
	 viewBox="0 0 511.998 511.998" xml:space="preserve">
<g>
	<g>
		<path d="M507.526,149.604l-31.465-17.181c-1.262-0.69-2.678-1.05-4.117-1.05h-61.784c-8.001-19.652-19.922-37.697-35.377-53.151
			C344.34,47.778,303.86,31.012,260.8,31.012c-65.483,0-124.728,40.086-149.315,100.361H61.01
			c-5.074-19.331-15.854-32.072-28.939-32.072C13.789,99.301,0,124.168,0,157.145c0,32.976,13.789,57.843,32.072,57.843
			c12.562,0,23.001-11.739,28.305-29.781h39.388c-0.1,2.326-0.16,4.661-0.16,6.998v36.68c-20.548,8.808-34.415,29.383-34.415,52.118
			c0,22.97,14.124,43.692,34.999,52.36c4.046,47.986,29.394,91.924,69.567,119.471c0.258,0.183,0.518,0.359,0.778,0.533l0.364,0.246
			c26.61,17.907,57.698,27.373,89.9,27.373c32.196,0,63.288-9.465,89.91-27.372c0.069-0.047,0.136-0.094,0.204-0.142l0.275-0.188
			c0.218-0.148,0.438-0.297,0.655-0.452c40.17-27.542,65.521-71.482,69.566-119.472c20.873-8.671,34.995-29.39,34.995-52.358
			c0-22.732-13.865-43.306-34.411-52.116v-36.682c0-2.341-0.058-4.673-0.158-6.998h49.662c1.578,0,3.127-0.435,4.475-1.258
			l31.911-19.472c2.62-1.599,4.187-4.472,4.113-7.54C511.924,153.87,510.219,151.074,507.526,149.604z M32.072,197.806
			c-5.249,0-14.89-15.438-14.89-40.662s9.641-40.662,14.89-40.662s14.89,15.438,14.89,40.662S37.321,197.806,32.072,197.806z
			 M99.605,313.604c-10.524-7.234-17.234-19.384-17.234-32.602c0-13.204,6.713-25.361,17.234-32.599V313.604z M63.615,168.025
			c0.341-3.508,0.528-7.139,0.528-10.881c0-2.932-0.115-5.798-0.325-8.591h86.772c0.257,2.805,0.386,5.677,0.386,8.591
			c0,3.728-0.211,7.367-0.627,10.881H63.615z M404.812,319.804c0,47.55-23.459,92.001-62.755,118.908
			c-0.062,0.042-0.123,0.086-0.184,0.129c-0.1,0.072-0.202,0.14-0.301,0.207c-0.182,0.123-0.361,0.244-0.536,0.368
			c-23.759,15.956-51.503,24.389-80.236,24.389c-28.773,0-56.543-8.453-80.225-24.388l-0.498-0.337
			c-0.118-0.078-0.237-0.156-0.352-0.238c-0.061-0.044-0.121-0.087-0.183-0.128c-39.296-26.915-62.755-71.366-62.755-118.909
			V192.206c0-2.339,0.061-4.677,0.172-6.998h40.697c4.072,0,7.585-2.859,8.412-6.847c1.388-6.695,2.091-13.833,2.091-21.215
			c0-6.431-0.538-12.718-1.599-18.684c-0.728-4.101-4.294-7.088-8.458-7.088h-27.856c23.452-50.217,74.432-83.18,130.554-83.18
			c38.47,0,74.636,14.98,101.835,42.178c27.199,27.199,42.178,63.364,42.178,101.835V319.804z M421.993,248.407
			c10.518,7.238,17.229,19.393,17.229,32.595c0,13.217-6.708,25.364-17.229,32.599V248.407z M469.084,168.025h-48.883
			c-0.987-6.6-2.379-13.1-4.159-19.472h53.711l16.488,9.003L469.084,168.025z"/>
	</g>
</g>
<g>
	<g>
		<path d="M386.677,263.841c-4.331-19.132-17.989-34.324-36.535-40.64c-14.145-4.818-29.316-3.839-42.722,2.756
			c-13.407,6.594-23.443,18.015-28.26,32.158c-0.017,0.052-0.458,62.55-0.458,62.55c0,1.731-1.408,3.138-3.138,3.138h-26.401
			c-1.731,0-3.138-1.408-3.138-3.138c0,0-0.441-62.497-0.458-62.55c-4.818-14.142-14.854-25.563-28.261-32.157
			c-13.406-6.594-28.58-7.571-42.72-2.756c-18.548,6.318-32.206,21.51-36.535,40.639c-1.998,8.821,0.848,17.72,7.609,23.803
			c4.682,4.212,10.695,6.445,16.801,6.445c2.7,0,5.418-0.436,8.047-1.332l34.718-11.825l-22.491,22.479
			c-3.356,3.354-3.357,8.793-0.003,12.148c3.353,3.356,8.792,3.357,12.148,0.003l33.966-33.947v39.049
			c0,11.204,9.115,20.32,20.32,20.32h26.401c11.204,0,20.32-9.115,20.32-20.32v-39.049l33.966,33.947
			c3.355,3.354,8.794,3.351,12.148-0.003c3.354-3.356,3.353-8.796-0.003-12.148l-22.491-22.479l34.716,11.825
			c2.629,0.896,5.347,1.332,8.048,1.332c6.105,0,12.118-2.234,16.8-6.444C385.829,281.561,388.674,272.662,386.677,263.841z
			 M164.964,276.491c-2.732,0.931-5.654,0.323-7.817-1.623c-0.994-0.895-3.214-3.39-2.342-7.236
			c3.002-13.262,12.467-23.791,25.318-28.169c4.099-1.396,8.321-2.09,12.529-2.09c5.85,0,11.667,1.341,17.07,3.999
			c6.662,3.277,12.123,8.274,15.911,14.454L164.964,276.491z M367.576,274.869c-2.163,1.946-5.086,2.554-7.816,1.622l-60.667-20.664
			c3.787-6.18,9.248-11.177,15.911-14.454c9.288-4.569,19.801-5.247,29.599-1.909c12.85,4.377,22.315,14.908,25.318,28.169
			C370.79,271.478,368.571,273.975,367.576,274.869z"/>
	</g>
</g>
<g>
	<g>
		<path d="M262.362,349.434c-36.918,0-66.954,30.035-66.954,66.954c0,4.744,3.846,8.591,8.591,8.591h116.728
			c4.744,0,8.591-3.846,8.591-8.591C329.316,379.469,299.281,349.434,262.362,349.434z M262.362,366.616
			c11.333,0,21.789,3.813,30.164,10.215c-9.521,3.898-19.769,5.937-30.169,5.937c-10.396,0-20.641-2.039-30.16-5.937
			C240.574,370.429,251.029,366.616,262.362,366.616z M213.331,407.798c1.11-6.359,3.44-12.302,6.725-17.59
			c13.12,6.383,27.59,9.741,42.301,9.741c14.717,0,29.19-3.357,42.31-9.741c3.285,5.29,5.615,11.232,6.725,17.59H213.331z"/>
	</g>
</g>
<g>
	<g>
		<path d="M382.561,201.411c-25.593-15.101-57.396-17.556-85.073-6.568c-4.41,1.751-6.564,6.745-4.814,11.154
			c1.75,4.409,6.744,6.564,11.154,4.814c22.78-9.044,48.948-7.027,70.001,5.396c1.371,0.81,2.874,1.194,4.358,1.194
			c2.939,0,5.804-1.511,7.406-4.225C388.004,209.09,386.647,203.822,382.561,201.411z"/>
	</g>
</g>
<g>
	<g>
		<path d="M224.111,194.845c-27.678-10.989-59.481-8.533-85.073,6.569c-4.086,2.411-5.444,7.678-3.032,11.765
			c1.602,2.716,4.466,4.225,7.406,4.225c1.483-0.001,2.987-0.386,4.357-1.195c21.055-12.422,47.224-14.44,70.002-5.396
			c4.409,1.748,9.403-0.404,11.154-4.814C230.675,201.589,228.519,196.595,224.111,194.845z"/>
	</g>
</g>
</svg>